<svg width="900" height="900" viewBox="0 0 900 900" fill="none" xmlns="http://www.w3.org/2000/svg">
<circle cx="450" cy="450" r="446" stroke="#648C8C" stroke-width="8"/>
<circle cx="450" cy="450" r="400" fill="#648C8C"/>
<path d="M509.325 571.914C503.488 568.385 497.924 564.4 492.697 560.015" stroke="white" stroke-width="60" stroke-miterlimit="10"/>
<path d="M556.086 589.369C545.639 587.559 535.403 584.521 525.665 580.326" stroke="white" stroke-width="60" stroke-miterlimit="10"/>
<path d="M604.306 588.899C593.55 590.997 582.535 591.762 571.598 591.144" stroke="white" stroke-width="60" stroke-miterlimit="10"/>
<path d="M658.342 564.758C646.976 573.373 634.137 579.835 620.716 584.577" stroke="white" stroke-width="60" stroke-miterlimit="10"/>
<path d="M694.593 522.199C687.795 533.754 679.481 544.362 670.431 554.227" stroke="white" stroke-width="60" stroke-miterlimit="10"/>
<path d="M710.19 477.417C709.046 488.445 705.868 499.18 701.314 509.269" stroke="white" stroke-width="60" stroke-miterlimit="10"/>
<path d="M712.877 441.937C713.143 448.56 712.975 455.197 712.393 461.799" stroke="white" stroke-width="60" stroke-miterlimit="10"/>
<path d="M707.931 409.124C709.46 414.863 710.646 420.693 711.481 426.572" stroke="white" stroke-width="60" stroke-miterlimit="10"/>
<path d="M695.737 378.212C698.67 383.677 701.238 389.332 703.434 395.134" stroke="white" stroke-width="60" stroke-miterlimit="10"/>
<path d="M679.769 354C682.392 357.22 684.869 360.546 687.205 363.984" stroke="white" stroke-width="60" stroke-miterlimit="10"/>
<path d="M659.262 334.096C662.728 336.755 666.053 339.596 669.21 342.613" stroke="white" stroke-width="60" stroke-miterlimit="10"/>
<path d="M631.696 318.317C636.341 320.197 640.866 322.379 645.237 324.842" stroke="white" stroke-width="60" stroke-miterlimit="10"/>
<path d="M582.907 309C593.691 309.014 604.474 310.284 614.949 312.887" stroke="white" stroke-width="60" stroke-miterlimit="10"/>
<path d="M544.165 314.676C552.24 312.241 560.547 310.578 568.938 309.708" stroke="white" stroke-width="60" stroke-miterlimit="10"/>
<path d="M510.776 329.493C517.112 325.796 523.672 322.47 530.435 319.629" stroke="white" stroke-width="60" stroke-miterlimit="10"/>
<path d="M481.408 353.474C486.165 348.24 491.364 343.413 496.92 339.035" stroke="white" stroke-width="60" stroke-miterlimit="10"/>
<path d="M334.678 449.079H451.107" stroke="white" stroke-width="60" stroke-miterlimit="10"/>
<path d="M381.965 320.801C352.239 308.684 318.836 305.752 287.636 313.651C257.159 321.369 229.685 339.498 211.689 365.422C196.935 386.673 189.07 412.204 187.407 437.91C186.516 451.78 187.043 466.43 189.428 480.111C194.571 509.563 209.486 537.016 233.193 555.581C254.444 572.222 281.063 580.094 307.814 580.894C321.692 581.315 335.962 580.185 349.404 576.53C372.059 570.377 393.808 558.773 410.899 542.636C433.967 520.845 447.402 490.15 449.711 458.663C450.328 450.251 449.584 441.916 449.795 433.504C450.16 418.988 453.008 404.514 458.27 390.974C461.61 382.379 465.931 374.164 471.123 366.537" stroke="white" stroke-width="60" stroke-miterlimit="10"/>
</svg>
