<svg width="900" height="900" viewBox="0 0 900 900" fill="none" xmlns="http://www.w3.org/2000/svg">
<circle cx="450" cy="450" r="446" stroke="#648C8C" stroke-width="8"/>
<circle cx="450" cy="450" r="400" fill="#648C8C"/>
<path d="M509.325 512.914C503.488 509.385 497.924 505.4 492.697 501.015" stroke="white" stroke-width="60" stroke-miterlimit="10"/>
<path d="M556.086 530.369C545.639 528.559 535.403 525.521 525.665 521.326" stroke="white" stroke-width="60" stroke-miterlimit="10"/>
<path d="M604.306 529.899C593.55 531.997 582.535 532.762 571.598 532.144" stroke="white" stroke-width="60" stroke-miterlimit="10"/>
<path d="M658.342 505.758C646.976 514.373 634.137 520.835 620.716 525.577" stroke="white" stroke-width="60" stroke-miterlimit="10"/>
<path d="M694.593 463.199C687.795 474.754 679.481 485.362 670.431 495.227" stroke="white" stroke-width="60" stroke-miterlimit="10"/>
<path d="M710.19 418.417C709.046 429.445 705.868 440.18 701.314 450.269" stroke="white" stroke-width="60" stroke-miterlimit="10"/>
<path d="M712.877 382.937C713.143 389.56 712.975 396.197 712.393 402.799" stroke="white" stroke-width="60" stroke-miterlimit="10"/>
<path d="M707.931 350.124C709.46 355.863 710.646 361.693 711.481 367.572" stroke="white" stroke-width="60" stroke-miterlimit="10"/>
<path d="M695.737 319.212C698.67 324.677 701.238 330.332 703.434 336.134" stroke="white" stroke-width="60" stroke-miterlimit="10"/>
<path d="M679.769 295C682.392 298.22 684.869 301.546 687.205 304.984" stroke="white" stroke-width="60" stroke-miterlimit="10"/>
<path d="M659.262 275.096C662.728 277.755 666.053 280.596 669.21 283.613" stroke="white" stroke-width="60" stroke-miterlimit="10"/>
<path d="M631.696 259.317C636.341 261.197 640.866 263.379 645.237 265.842" stroke="white" stroke-width="60" stroke-miterlimit="10"/>
<path d="M582.907 250C593.691 250.014 604.474 251.284 614.949 253.887" stroke="white" stroke-width="60" stroke-miterlimit="10"/>
<path d="M544.165 255.676C552.24 253.241 560.547 251.578 568.938 250.708" stroke="white" stroke-width="60" stroke-miterlimit="10"/>
<path d="M510.776 270.493C517.112 266.796 523.672 263.47 530.435 260.629" stroke="white" stroke-width="60" stroke-miterlimit="10"/>
<path d="M481.408 294.474C486.165 289.24 491.364 284.413 496.92 280.035" stroke="white" stroke-width="60" stroke-miterlimit="10"/>
<path d="M334.678 390.079H451.107" stroke="white" stroke-width="60" stroke-miterlimit="10"/>
<path d="M381.965 261.801C352.239 249.684 318.836 246.752 287.636 254.651C257.159 262.369 229.685 280.498 211.689 306.422C196.935 327.673 189.07 353.204 187.407 378.91C186.516 392.78 187.043 407.43 189.428 421.111C194.571 450.563 209.486 478.016 233.193 496.581C254.444 513.222 281.063 521.094 307.814 521.894C321.692 522.315 335.962 521.185 349.404 517.53C372.059 511.377 393.808 499.773 410.899 483.636C433.967 461.845 447.402 431.15 449.711 399.663C450.328 391.251 449.584 382.916 449.795 374.504C450.16 359.988 453.008 345.514 458.27 331.974C461.61 323.379 465.931 315.164 471.123 307.537" stroke="white" stroke-width="60" stroke-miterlimit="10"/>
<path d="M334 673H316.9L288.3 629.7V673H271.2V602.8H288.3L316.9 646.3V602.8H334V673ZM354.995 611.4C351.995 611.4 349.529 610.533 347.595 608.8C345.729 607 344.795 604.8 344.795 602.2C344.795 599.533 345.729 597.333 347.595 595.6C349.529 593.8 351.995 592.9 354.995 592.9C357.929 592.9 360.329 593.8 362.195 595.6C364.129 597.333 365.095 599.533 365.095 602.2C365.095 604.8 364.129 607 362.195 608.8C360.329 610.533 357.929 611.4 354.995 611.4ZM363.495 617.2V673H346.395V617.2H363.495ZM410.188 616.6C416.588 616.6 421.721 618.733 425.588 623C429.454 627.2 431.388 633 431.388 640.4V673H414.388V642.7C414.388 638.967 413.421 636.067 411.488 634C409.554 631.933 406.954 630.9 403.688 630.9C400.421 630.9 397.821 631.933 395.888 634C393.954 636.067 392.988 638.967 392.988 642.7V673H375.888V599H392.988V624.7C394.721 622.233 397.088 620.267 400.088 618.8C403.088 617.333 406.454 616.6 410.188 616.6ZM477.57 616.6C483.97 616.6 489.104 618.733 492.97 623C496.837 627.2 498.77 633 498.77 640.4V673H481.77V642.7C481.77 638.967 480.804 636.067 478.87 634C476.937 631.933 474.337 630.9 471.07 630.9C467.804 630.9 465.204 631.933 463.27 634C461.337 636.067 460.37 638.967 460.37 642.7V673H443.27V599H460.37V624.7C462.104 622.233 464.47 620.267 467.47 618.8C470.47 617.333 473.837 616.6 477.57 616.6ZM536.053 673.8C530.586 673.8 525.653 672.633 521.253 670.3C516.92 667.967 513.486 664.633 510.953 660.3C508.486 655.967 507.253 650.9 507.253 645.1C507.253 639.367 508.52 634.333 511.053 630C513.586 625.6 517.053 622.233 521.453 619.9C525.853 617.567 530.786 616.4 536.253 616.4C541.72 616.4 546.653 617.567 551.053 619.9C555.453 622.233 558.92 625.6 561.453 630C563.986 634.333 565.253 639.367 565.253 645.1C565.253 650.833 563.953 655.9 561.353 660.3C558.82 664.633 555.32 667.967 550.853 670.3C546.453 672.633 541.52 673.8 536.053 673.8ZM536.053 659C539.32 659 542.086 657.8 544.353 655.4C546.686 653 547.853 649.567 547.853 645.1C547.853 640.633 546.72 637.2 544.453 634.8C542.253 632.4 539.52 631.2 536.253 631.2C532.92 631.2 530.153 632.4 527.953 634.8C525.753 637.133 524.653 640.567 524.653 645.1C524.653 649.567 525.72 653 527.853 655.4C530.053 657.8 532.786 659 536.053 659ZM608.325 616.6C614.858 616.6 620.058 618.733 623.925 623C627.858 627.2 629.825 633 629.825 640.4V673H612.825V642.7C612.825 638.967 611.858 636.067 609.925 634C607.992 631.933 605.392 630.9 602.125 630.9C598.858 630.9 596.258 631.933 594.325 634C592.392 636.067 591.425 638.967 591.425 642.7V673H574.325V617.2H591.425V624.6C593.158 622.133 595.492 620.2 598.425 618.8C601.358 617.333 604.658 616.6 608.325 616.6Z" fill="white"/>
</svg>
